# xmcd CD database file
#
# Track frame offsets:
#	150
#	4760
#	18325
#	33162
#	50730
#	58812
#	77755
#	94025
#	109295
#	124295
#	143515
#	165660
#
# Disc length: 2293 seconds
#
# Revision: 0
# Processed by: cddbd v1.5.1PL2 Copyright (c) Steve Scherf et al.
# Submitted via: CDex 1.40Release
#
DISCID=9808f30c
DTITLE=MONTIEN - MONTIEN ?
DYEAR=2006
DGENRE=Hip-Hop
TTITLE0=Intro
TTITLE1=STRESS SESSION
TTITLE2=Safari
TTITLE3=DOIT feat. CHIEF LOW, XBS
TTITLE4=GET AWAY SCAT
TTITLE5=ゆく河の流れ
TTITLE6=SKIMMING feat. ASIAN STAR
TTITLE7=MOON ERECTION 〜album version〜
TTITLE8=虜ロール 2004
TTITLE9=Sunset Strip
TTITLE10=G.A.H. 2006
TTITLE11=Outro
EXTD=YEAR: 2006 ID3G: 7
EXTT0=
EXTT1=
EXTT2=
EXTT3=
EXTT4=
EXTT5=
EXTT6=
EXTT7=
EXTT8=
EXTT9=
EXTT10=
EXTT11=
PLAYORDER=
